<?xml version="1.0" encoding="utf-8"?>
<!-- Generator: Adobe Illustrator 16.0.0, SVG Export Plug-In . SVG Version: 6.00 Build 0)  -->
<!DOCTYPE svg PUBLIC "-//W3C//DTD SVG 1.1//EN" "http://www.w3.org/Graphics/SVG/1.1/DTD/svg11.dtd">
<svg version="1.1" id="Layer_1" xmlns="http://www.w3.org/2000/svg" xmlns:xlink="http://www.w3.org/1999/xlink" x="0px" y="0px"
	 width="141.732px" height="141.732px" viewBox="0 0 141.732 141.732" enable-background="new 0 0 141.732 141.732"
	 xml:space="preserve">
<circle fill="#58595B" cx="70.866" cy="70.866" r="70.866"/>
<g>
	<path fill="#FFFFFF" d="M21.238,45.945c0-2.127,1.103-3.781,3.703-3.781h13.629c16.701,0,24.894,12.919,24.894,27.729
		c0,16.78-8.902,28.36-23.949,28.36H24.94c-2.6,0-3.703-1.654-3.703-3.781V45.945z M28.17,92.267h9.926
		c13.078,0,17.962-10.95,17.962-22.373c0-11.501-5.2-21.743-18.435-21.743H28.17V92.267z"/>
	<path fill="#FFFFFF" d="M79.371,91.794h14.81c1.97,0,3.388,1.024,3.388,3.23c0,2.206-1.418,3.23-3.388,3.23h-18.04
		c-2.6,0-3.702-1.654-3.702-3.781V45.394c0-2.285,1.339-3.703,3.466-3.703c2.127,0,3.466,1.418,3.466,3.703V91.794z"/>
</g>
<g>
	<path fill="#FFFFFF" d="M109.989,54.172c0-2.125,1.358-3.543,3.543-3.543s3.543,1.417,3.543,3.543v8.563h8.563
		c2.185,0,3.543,1.417,3.543,3.543s-1.358,3.543-3.543,3.543h-8.563v8.563c0,2.125-1.358,3.543-3.543,3.543
		s-3.543-1.417-3.543-3.543v-8.563h-8.563c-2.185,0-3.543-1.417-3.543-3.543s1.358-3.543,3.543-3.543h8.563V54.172z"/>
</g>
</svg>
