<?xml version="1.0" standalone="no"?>
<!DOCTYPE svg PUBLIC "-//W3C//DTD SVG 20010904//EN"
 "http://www.w3.org/TR/2001/REC-SVG-20010904/DTD/svg10.dtd">
<svg version="1.0" xmlns="http://www.w3.org/2000/svg"
 width="576.000000pt" height="576.000000pt" viewBox="0 0 576.000000 576.000000"
 preserveAspectRatio="xMidYMid meet">
<metadata>
Created by potrace 1.14, written by Peter Selinger 2001-2017
</metadata>
<g transform="translate(0.000000,576.000000) scale(0.100000,-0.100000)"
fill="#000000" stroke="none">
<path d="M2085 5660 c-66 -28 -133 -57 -150 -65 -16 -7 -70 -30 -120 -50 -49
-20 -106 -43 -125 -52 -19 -8 -64 -27 -99 -41 -70 -30 -102 -63 -103 -108 0
-24 93 -262 172 -439 10 -22 34 -80 54 -130 21 -49 43 -103 50 -120 8 -16 37
-86 66 -155 29 -69 60 -143 69 -165 10 -22 40 -93 66 -158 l49 -119 50 -23
c28 -12 74 -32 103 -44 28 -11 64 -26 80 -33 15 -6 30 -12 33 -13 3 -1 14 -6
25 -10 115 -49 282 -115 291 -115 6 0 46 87 89 193 43 105 86 211 96 234 11
23 19 44 19 48 0 3 9 25 21 50 23 48 21 68 -11 139 -28 61 -69 160 -155 366
-93 224 -120 289 -151 358 -13 29 -24 55 -24 58 0 3 -6 20 -14 37 -8 18 -45
104 -81 192 -37 88 -77 170 -89 183 -40 41 -79 37 -211 -18z"/>
<path d="M3324 5435 c-28 -12 -56 -57 -99 -160 -9 -22 -20 -49 -25 -60 -5 -11
-48 -112 -95 -225 -84 -200 -107 -254 -125 -295 -5 -11 -18 -42 -30 -70 -11
-27 -25 -58 -30 -67 -6 -10 -10 -22 -10 -27 0 -6 -13 -38 -29 -72 -16 -34 -26
-70 -23 -78 3 -9 51 -124 107 -256 56 -132 108 -257 116 -277 7 -21 18 -38 25
-38 10 0 240 97 369 155 76 35 129 58 135 59 3 1 10 4 15 7 6 3 18 9 29 13 16
5 17 3 12 -20 -4 -14 -16 -45 -26 -68 -10 -22 -40 -93 -65 -156 -26 -63 -53
-128 -60 -145 -77 -175 -82 -204 -39 -205 6 0 24 -6 40 -14 16 -8 103 -44 194
-81 91 -37 170 -71 175 -75 6 -5 14 -8 18 -8 4 0 33 -10 64 -23 l57 -23 -35
-15 c-18 -8 -36 -15 -39 -16 -3 0 -27 -11 -54 -23 -27 -12 -50 -22 -53 -22 -3
0 -154 -61 -258 -105 -16 -7 -55 -23 -86 -35 -53 -21 -56 -24 -49 -49 4 -14
55 -136 112 -271 58 -135 108 -253 111 -262 7 -20 27 -27 -203 67 -204 83
-228 93 -262 111 -16 9 -28 13 -28 9 0 -3 -18 4 -39 15 l-39 20 -32 -78 c-42
-101 -54 -131 -70 -167 -8 -16 -14 -32 -15 -35 -1 -3 -9 -22 -18 -42 -10 -21
-17 -40 -17 -42 0 -5 -33 -82 -60 -141 -21 -44 -33 -81 -31 -90 5 -22 -16 11
-29 45 -7 19 -19 49 -26 65 -51 118 -146 342 -148 350 -1 6 -15 36 -29 69 -20
44 -30 56 -39 48 -7 -5 -24 -13 -38 -17 -14 -4 -54 -21 -90 -37 -68 -31 -102
-45 -135 -59 -11 -4 -41 -17 -66 -28 -191 -83 -230 -99 -226 -88 3 7 21 50 40
97 86 212 109 267 124 295 10 17 17 32 16 35 -1 6 7 27 31 84 9 21 16 42 16
47 0 5 -19 17 -42 28 -63 28 -489 209 -516 218 -20 8 -14 13 55 42 43 18 94
41 113 49 19 9 37 17 40 17 3 1 26 11 52 23 26 12 50 22 53 22 3 0 31 11 61
25 30 14 82 37 117 51 34 14 64 28 66 30 4 4 -10 42 -47 124 -13 30 -47 109
-74 175 -28 66 -54 125 -58 130 -4 6 -20 43 -35 83 -16 39 -32 72 -36 72 -4 0
-29 10 -56 22 -26 11 -52 22 -58 24 -5 1 -75 30 -155 64 -80 34 -149 63 -155
64 -5 2 -26 10 -45 18 -31 14 -261 109 -520 215 -47 19 -98 42 -115 51 -16 9
-30 15 -30 13 0 -3 -23 6 -135 52 -47 19 -141 58 -210 87 -69 28 -133 53 -143
55 -9 2 -20 6 -25 9 -16 10 -72 -24 -87 -54 -9 -17 -41 -93 -72 -168 -30 -75
-60 -148 -66 -162 -5 -14 -11 -30 -12 -36 -2 -6 -10 -27 -18 -45 -9 -19 -32
-74 -52 -124 -19 -49 -41 -100 -46 -111 -18 -35 -2 -101 29 -122 15 -10 97
-47 182 -81 85 -35 171 -70 190 -78 19 -8 44 -19 55 -24 11 -4 49 -20 85 -35
36 -14 83 -34 105 -44 22 -9 99 -41 170 -70 72 -29 148 -60 170 -70 48 -21 78
-33 85 -34 6 -1 197 -81 255 -107 22 -9 94 -38 160 -65 66 -26 124 -51 130
-55 5 -5 17 -9 27 -9 35 0 17 -18 -44 -45 -93 -41 -145 -64 -218 -97 -36 -16
-101 -45 -145 -65 -44 -19 -87 -39 -95 -44 -8 -5 -22 -12 -30 -15 -33 -13 -58
-24 -130 -57 -41 -19 -109 -49 -150 -67 -220 -95 -234 -105 -243 -169 -3 -20
65 -200 127 -336 8 -16 35 -82 60 -145 26 -63 53 -129 61 -145 7 -17 18 -42
24 -57 6 -15 22 -35 37 -44 33 -22 99 -27 115 -8 6 8 17 14 24 14 11 0 61 21
213 91 35 16 65 29 68 29 2 0 39 16 81 36 43 20 195 88 338 151 143 63 264
117 268 120 4 3 1 -12 -8 -34 -9 -21 -21 -49 -26 -63 -5 -14 -12 -32 -16 -40
-3 -8 -7 -17 -8 -20 -5 -14 -27 -67 -35 -85 -5 -11 -19 -45 -31 -75 -12 -30
-27 -68 -34 -85 -7 -16 -34 -82 -59 -145 -26 -63 -51 -124 -56 -135 -5 -11
-19 -45 -31 -75 -11 -30 -27 -71 -36 -90 -24 -56 -31 -71 -59 -140 -14 -36
-32 -78 -39 -95 -79 -183 -86 -226 -46 -269 14 -14 29 -26 34 -26 5 0 23 -7
40 -15 52 -23 580 -236 610 -245 54 -17 106 8 127 62 30 76 132 324 140 343 5
11 25 61 45 110 20 50 40 99 45 110 5 11 34 81 64 155 135 334 207 505 216
514 6 6 12 2 16 -10 3 -10 15 -38 25 -62 11 -23 91 -205 180 -405 88 -199 169
-380 179 -402 10 -22 82 -184 160 -360 78 -176 149 -336 158 -355 9 -19 17
-37 17 -40 1 -3 13 -30 27 -60 13 -30 44 -98 67 -152 71 -161 85 -165 291 -78
80 34 156 67 170 72 14 6 34 13 44 15 11 2 27 10 36 18 9 8 22 15 29 15 6 0
39 13 74 28 34 16 64 29 67 30 3 0 16 5 30 10 14 6 37 15 52 20 32 13 74 69
76 101 0 13 -24 80 -55 150 -30 69 -57 136 -60 148 -3 13 -9 23 -14 23 -5 0
-9 6 -9 14 0 8 -6 27 -14 43 -8 15 -25 51 -37 78 -12 28 -29 66 -37 85 -9 19
-16 37 -17 40 -1 3 -10 25 -22 50 -11 25 -67 151 -123 280 -57 129 -118 268
-136 308 -19 41 -34 75 -34 77 0 3 -13 34 -30 70 -16 36 -30 67 -30 70 0 2
-13 32 -29 67 -46 101 -75 166 -121 273 -24 55 -47 104 -52 109 -4 6 -8 18 -8
28 0 10 -4 18 -8 18 -4 0 -8 9 -9 21 -1 12 3 19 10 16 33 -13 367 -151 397
-164 19 -8 46 -20 60 -25 14 -6 34 -14 45 -19 398 -166 513 -210 543 -206 32
5 72 31 72 49 0 4 9 27 19 51 10 23 51 123 91 222 39 99 78 193 86 209 8 16
14 33 14 37 0 5 12 34 26 66 57 125 44 165 -73 219 -41 18 -79 34 -84 34 -5 0
-34 12 -66 26 -82 37 -81 37 -248 104 -82 33 -158 65 -167 70 -10 6 -25 10
-33 10 -8 0 -15 5 -15 10 0 6 -3 9 -7 8 -8 -3 -169 59 -188 72 -5 3 -43 19
-84 35 l-74 29 64 29 c35 16 69 30 74 31 6 2 21 8 35 14 14 5 88 36 165 67 77
31 154 62 170 70 17 7 125 51 240 98 265 107 704 286 730 297 11 5 61 25 110
45 133 53 163 95 131 180 -16 42 -49 122 -66 160 -10 22 -39 92 -64 155 -26
63 -51 122 -56 131 -5 9 -23 54 -41 100 -39 103 -82 150 -134 143 -18 -2 -64
-18 -102 -35 -37 -17 -69 -30 -70 -30 -2 0 -24 -9 -50 -20 -27 -11 -65 -26
-85 -32 -21 -7 -38 -15 -38 -19 0 -5 -5 -8 -11 -8 -16 0 -361 -140 -376 -152
-7 -6 -13 -7 -13 -3 0 4 -11 0 -25 -9 -14 -9 -25 -14 -25 -12 0 3 -29 -8 -65
-25 -35 -16 -71 -29 -80 -29 -8 0 -15 -4 -15 -10 0 -5 -3 -9 -7 -8 -5 0 -17
-2 -28 -7 -11 -4 -58 -23 -105 -42 -47 -19 -94 -38 -105 -43 -11 -5 -60 -25
-110 -45 -49 -20 -99 -40 -110 -45 -11 -5 -42 -18 -70 -29 -27 -11 -68 -27
-90 -37 -22 -10 -45 -19 -52 -20 -7 -1 -26 -9 -43 -17 -16 -9 -30 -13 -30 -11
0 3 12 31 26 62 14 31 41 94 59 139 19 45 40 97 49 115 15 33 48 109 51 118 7
20 20 51 36 87 10 24 19 49 19 57 0 7 7 19 15 26 8 7 15 18 15 24 0 11 44 120
85 211 72 160 80 195 59 237 -16 31 -33 40 -254 127 -85 34 -164 66 -175 71
-11 5 -60 25 -110 45 -49 21 -99 41 -110 45 -22 9 -64 23 -81 26 -6 1 -24 -4
-40 -11z"/>
</g>
</svg>
