<?xml version="1.0" encoding="utf-8"?>
<svg version="1.1" xmlns:xlink="http://www.w3.org/1999/xlink" width="37px" height="42px" xmlns="http://www.w3.org/2000/svg">
  <g transform="matrix(1 0 0 1 -364 -115 )">
    <path d="M 9 9.20602247191011  L 8.56404494382022 9.20602247191011  C 8.56404494382022 7.87712359550562  9.47865168539326 6.67280898876405  10.7674157303371 6.34058426966292  L 33.2584269662921 0.319011235955057  C 34.838202247191 -0.0962696629213477  36.4595505617978 0.858876404494383  36.8752808988764 2.43694382022472  C 36.9584269662921 2.68611235955056  37 2.93528089887641  37 3.22597752808989  L 37 9.08143820224719  L 37 30.9667415730337  C 37 34.5796853932584  34.1314606741573 37.5281797752809  30.514606741573 37.6112359550562  L 30.3898876404494 37.6112359550562  C 26.7314606741573 37.6112359550562  23.7797752808989 34.6627415730337  23.7797752808989 30.9667415730337  C 23.7797752808989 27.3122696629213  26.7314606741573 24.3222471910112  30.3898876404494 24.3222471910112  C 31.0550561797753 24.3222471910112  31.7202247191011 24.4053033707865  32 24.6129438202247  L 32 10.368808988764  L 13.2202247191011 15.7259325842697  L 13.2202247191011 34.9534382022472  C 13.2202247191011 34.9949662921348  13.2202247191011 35.0780224719101  13.2202247191011 35.1195505617978  C 13.2202247191011 38.7740224719101  10.2685393258427 41.7640449438202  6.61011235955057 41.7640449438202  C 2.95168539325843 41.7640449438202  0 38.7740224719101  0 35.1195505617978  C 0 31.4650786516854  2.95168539325843 28.4750561797753  6.61011235955056 28.4750561797753  C 7.2752808988764 28.4750561797753  7.94044943820225 28.5581123595506  9 28.7657528089888  L 9 9.20602247191011  Z " fill-rule="nonzero" fill="#9ca3aa" stroke="none" transform="matrix(1 0 0 1 364 115 )" />
  </g>
</svg>