<?xml version="1.0" encoding="utf-8"?>
<svg version="1.1" xmlns:xlink="http://www.w3.org/1999/xlink" width="22px" height="25px" xmlns="http://www.w3.org/2000/svg">
  <g transform="matrix(1 0 0 1 -27 -192 )">
    <path d="M 5 5.47977528089888  L 5.09213483146067 5.47977528089888  C 5.09213483146067 4.68876404494382  5.63595505617978 3.97191011235955  6.40224719101124 3.77415730337079  L 19.7752808988764 0.189887640449439  C 20.714606741573 -0.0573033707865165  21.6786516853933 0.51123595505618  21.9258426966292 1.45056179775281  C 21.9752808988764 1.59887640449438  22 1.74719101123596  22 1.92022471910112  L 22 5.40561797752809  L 22 18.4325842696629  C 22 20.5831460674157  20.2943820224719 22.338202247191  18.1438202247191 22.3876404494382  L 18.0696629213483 22.3876404494382  C 15.8943820224719 22.3876404494382  14.1393258426966 20.6325842696629  14.1393258426966 18.4325842696629  C 14.1393258426966 16.2573033707865  15.8943820224719 14.4775280898876  18.0696629213483 14.4775280898876  C 18.4651685393258 14.4775280898876  18.8606741573034 14.5269662921348  19.2314606741573 14.6505617977528  L 19.2314606741573 6.17191011235955  L 8 9.36067415730337  L 8 20.8056179775281  C 7.86067415730337 20.8303370786517  7.86067415730337 20.8797752808989  7.86067415730337 20.9044943820225  C 7.86067415730337 23.0797752808989  6.10561797752809 24.8595505617978  3.93033707865169 24.8595505617978  C 1.75505617977528 24.8595505617978  0 23.0797752808989  0 20.9044943820225  C 0 18.7292134831461  1.75505617977528 16.9494382022472  3.93033707865169 16.9494382022472  C 4.32584269662921 16.9494382022472  4.72134831460674 16.9988764044944  5 17.1224719101124  L 5 5.47977528089888  Z " fill-rule="nonzero" fill="#40c0c0" stroke="none" transform="matrix(1 0 0 1 27 192 )" />
  </g>
</svg>