<?xml version="1.0" encoding="utf-8"?>
<svg version="1.1" xmlns:xlink="http://www.w3.org/1999/xlink" width="24px" height="23px" xmlns="http://www.w3.org/2000/svg">
  <g transform="matrix(1 0 0 1 -27 -462 )">
    <path d="M 3.36 1.852  L 3.36 1.876  L 3.36 6.244  C 3.36 6.844  3.648 7.372  4.104 7.78  L 4.152 7.828  C 4.632 8.212  5.28 8.452  6 8.452  C 6.72 8.452  7.368 8.212  7.848 7.828  C 8.328 7.444  8.616 6.916  8.64 6.34  L 8.64 6.268  L 8.64 1.9  L 15.36 1.9  L 15.36 6.34  C 15.36 6.964  15.672 7.54  16.152 7.948  C 16.632 8.332  17.28 8.572  18 8.572  C 18.72 8.572  19.368 8.332  19.848 7.924  C 20.328 7.54  20.616 6.988  20.64 6.388  L 20.64 6.316  L 20.64 1.876  L 21.816 1.876  C 22.992 1.876  23.952 2.788  24 3.916  L 24 3.988  L 24 20.812  C 24 21.964  23.064 22.876  21.888 22.924  L 21.816 23  L 2.184 23  C 1.008 22.924  0.0479999999999998 22.012  0 20.884  L 0 20.812  L 0 3.964  C 0 2.812  0.936 1.9  2.112 1.852  L 2.184 1.852  L 3.36 1.852  Z M 21.816 9.268  L 2.184 9.268  L 2.184 20.812  L 21.816 20.812  L 21.816 9.268  Z M 9.96 11.38  L 9.96 18.676  L 8.016 18.676  L 8.016 13.3  L 6.672 13.3  L 6.672 11.38  L 9.96 11.38  Z M 14.352 11.236  C 14.904 11.236  15.384 11.332  15.816 11.548  C 16.224 11.764  16.56 12.052  16.8 12.436  C 17.04 12.82  17.16 13.228  17.16 13.708  C 17.16 13.948  17.136 14.164  17.064 14.404  C 16.992 14.644  16.92 14.86  16.8 15.076  C 16.68 15.292  16.536 15.508  16.344 15.724  C 16.176 15.94  15.96 16.156  15.72 16.348  C 15.48 16.564  15.216 16.756  14.904 16.948  L 17.28 16.948  L 17.28 18.652  L 11.448 18.652  L 11.448 17.644  L 11.592 17.524  C 12.024 17.188  12.432 16.876  12.792 16.588  C 13.176 16.276  13.512 15.964  13.8 15.7  C 14.088 15.436  14.328 15.172  14.496 14.956  C 14.688 14.716  14.808 14.524  14.904 14.332  C 15 14.14  15.048 13.972  15.048 13.804  C 15.048 13.66  15.024 13.516  14.952 13.396  C 14.88 13.276  14.784 13.156  14.664 13.084  C 14.544 13.012  14.4 12.964  14.232 12.964  C 14.088 12.964  13.944 13.012  13.824 13.084  C 13.704 13.156  13.584 13.276  13.464 13.468  C 13.344 13.636  13.224 13.876  13.08 14.14  L 11.472 13.348  L 11.52 13.228  C 11.64 12.94  11.784 12.676  11.952 12.436  C 12.144 12.172  12.36 11.956  12.6 11.788  C 12.84 11.62  13.104 11.476  13.416 11.38  C 13.704 11.284  14.016 11.236  14.352 11.236  Z M 18.024 0.100000000000001  C 18.912 0.100000000000001  19.656 0.82  19.656 1.732  L 19.656 5.812  C 19.656 6.7  18.936 7.444  18.024 7.444  L 18 7.444  C 17.112 7.444  16.368 6.724  16.368 5.812  L 16.368 1.732  C 16.368 0.844000000000001  17.088 0.100000000000001  18 0.100000000000001  L 18.024 0.100000000000001  Z M 6.024 0.100000000000001  C 6.912 0.100000000000001  7.656 0.82  7.656 1.732  L 7.656 5.812  C 7.656 6.7  6.936 7.444  6.024 7.444  L 6 7.444  C 5.112 7.444  4.368 6.724  4.368 5.812  L 4.368 1.732  C 4.368 0.844000000000001  5.088 0.100000000000001  6 0.100000000000001  L 6.024 0.100000000000001  Z " fill-rule="nonzero" fill="#40c0c0" stroke="none" transform="matrix(1 0 0 1 27 462 )" />
  </g>
</svg>