<?xml version="1.0" encoding="utf-8"?>
<svg version="1.1" xmlns:xlink="http://www.w3.org/1999/xlink" width="17px" height="23px" xmlns="http://www.w3.org/2000/svg">
  <g transform="matrix(1 0 0 1 209 -128 )">
    <path d="M 4.12533333333333 4.278  C 4.148 1.932  6.052 0  8.38666666666667 0  C 10.6986666666667 0  12.58 1.886  12.6026666666667 4.209  L 12.6026666666667 4.278  L 12.6026666666667 4.807  L 10.9026666666667 4.807  L 10.9026666666667 4.278  C 10.9026666666667 2.852  9.76933333333333 1.702  8.364 1.702  C 6.98133333333333 1.702  5.87066666666667 2.829  5.82533333333333 4.209  L 5.82533333333333 4.278  L 5.82533333333333 4.807  L 4.12533333333333 4.807  L 4.12533333333333 4.278  Z M 14.7106666666667 6  L 14.7106666666667 5.819  C 15.436 5.819  16.0253333333333 6.394  16.0706666666667 7.13  L 16.7733333333333 21.551  C 16.8186666666667 22.31  16.2293333333333 22.954  15.4813333333333 23  C 15.4586666666667 23  15.436 23  15.4133333333333 23  L 1.36 23  C 0.612 23  0 22.379  0 21.62  C 0 21.597  0 21.574  0 21.551  L 0.702666666666667 7.107  C 0.748 6.371  1.33733333333333 5.796  2.06266666666667 6  L 14.7106666666667 6  Z " fill-rule="nonzero" fill="#40c0c0" stroke="none" transform="matrix(1 0 0 1 -209 128 )" />
  </g>
</svg>