<?xml version="1.0" encoding="utf-8"?>
<svg version="1.1" xmlns:xlink="http://www.w3.org/1999/xlink" width="22px" height="22px" xmlns="http://www.w3.org/2000/svg">
  <g transform="matrix(1 0 0 1 -19 -11 )">
    <path d="M 20.306 0.153999999999999  C 20.702 -0.11  21.252 -0.022  21.516 0.396  C 21.626 0.528  21.67 0.704  21.67 0.88  L 21.67 21.12  C 21.67 21.604  21.274 22  20.79 22  C 20.614 22  20.438 21.956  20.306 21.846  L 5.258 11.726  C 4.862 11.462  4.752 10.912  5.016 10.516  C 5.082 10.428  5.17 10.34  5.258 10.274  L 20.306 0.153999999999999  Z M 1.21 0.242  L 2.684 0.242  C 3.168 0.242  3.564 0.638  4 1.122  L 4 21.032  C 3.564 21.516  3.168 21.912  2.684 21.912  L 1.21 21.912  C 0.726 21.912  0.33 21.516  0.33 21.032  L 0.33 1.122  C 0.33 0.638  0.726 0.242  1.21 0.242  Z " fill-rule="nonzero" fill="#ffffff" stroke="none" transform="matrix(1 0 0 1 19 11 )" />
  </g>
</svg>