<?xml version="1.0" encoding="utf-8"?>
<svg version="1.1" xmlns:xlink="http://www.w3.org/1999/xlink" width="21px" height="20px" xmlns="http://www.w3.org/2000/svg">
  <g transform="matrix(1 0 0 1 0 1 )">
    <path d="M 3.25108695652174 1.88804347826087  L 3.39565217391304 1.8054347826087  C 6.03913043478261 0.339130434782609  8.49673913043478 0.876086956521739  10.520652173913 3.25108695652174  L 10.5619565217391 3.31304347826087  L 10.6445652173913 3.20978260869565  C 12.6271739130435 1.10326086956522  14.9195652173913 0.525  17.3565217391304 1.57826086956522  L 17.5217391304348 1.66086956521739  C 20.3097826086957 2.94130434782609  21.1771739130435 5.48152173913043  20.7021739130435 8.72391304347826  C 20.1858695652174 12.1934782608696  16.9641304347826 15.7869565217391  11.0782608695652 19.6282608695652  L 10.5 20  L 9.94239130434782 19.6076086956522  C 4.325 15.704347826087  1.10326086956522 12.1315217391304  0.359782608695652 8.80652173913044  C -0.239130434782609 6.16304347826087  0.524999999999999 3.47826086956522  3.25108695652174 1.88804347826087  Z M 6.94782608695652 3.82934782608696  C 6.225 3.58152173913043  5.44021739130435 3.74673913043478  4.59347826086957 4.24239130434783  C 3.85 4.67608695652174  3.375 5.23369565217391  3.10652173913043 5.85326086956522  C 2.81739130434783 6.5554347826087  2.79673913043478 7.36086956521739  2.98260869565217 8.18695652173913  C 3.54021739130435 10.6239130434783  6.0804347826087 13.4945652173913  10.5619565217391 16.7163043478261  C 15.0847826086957 13.6391304347826  17.604347826087 10.8510869565217  18.0380434782609 8.41413043478261  L 18.0586956521739 8.29021739130435  C 18.2239130434783 7.19565217391304  18.1826086956522 6.26630434782609  17.8934782608696 5.54347826086956  C 17.625 4.90326086956521  17.129347826087 4.40760869565217  16.4065217391304 4.07717391304348  C 15.6010869565217 3.70543478260869  14.8576086956522 3.64347826086956  14.1347826086956 3.91195652173913  C 13.35 4.22173913043478  12.6271739130435 4.90326086956521  11.8630434782609 5.93586956521739  L 10.4586956521739 7.89782608695652  L 9.15760869565217 5.87391304347826  C 8.43478260869565 4.8  7.73260869565217 4.09782608695652  6.94782608695652 3.82934782608696  Z " fill-rule="nonzero" fill="#d7d7d7" stroke="none" transform="matrix(1 0 0 1 0 -1 )" />
  </g>
</svg>