<svg width="29" height="27" viewBox="0 0 29 27" fill="none" xmlns="http://www.w3.org/2000/svg">
<path fill-rule="evenodd" clip-rule="evenodd" d="M0.265274 11.0802C-0.566421 7.32276 0.496928 3.51819 4.31713 1.27605L4.524 1.15741C8.2426 -0.925671 11.6922 -0.170285 14.5284 3.20823L14.5927 3.28616L14.7184 3.15004C17.4968 0.167051 20.7106 -0.666732 24.1395 0.836599L24.354 0.933603C28.257 2.75102 29.4991 6.35007 28.8267 10.9713C28.1078 15.9122 23.5712 21.0165 15.3206 26.4654L14.5111 27L13.7169 26.4418C5.8184 20.89 1.31517 15.8233 0.265274 11.0802ZM14.571 23C20.7758 18.5018 24.2479 14.4587 24.8395 10.9091L24.8674 10.7258C25.0894 9.12067 25.0462 7.78625 24.6343 6.72363C24.2684 5.77985 23.5984 5.07982 22.6044 4.59421C21.503 4.05614 20.4725 3.94877 19.4747 4.36105C18.4051 4.80304 17.3945 5.79411 16.3661 7.31127L14.4303 10.1671L12.633 7.20975C11.6505 5.59318 10.6835 4.56181 9.61702 4.16907C8.61094 3.7986 7.55013 4.05281 6.37488 4.77651C5.36332 5.39941 4.69467 6.20753 4.33457 7.13924C3.93418 8.17521 3.91252 9.34949 4.16676 10.5546C4.91846 14.1176 8.42924 18.2812 14.571 23Z" fill="#4DD6D4"/>
</svg>
