<svg width="36" height="32" viewBox="0 0 36 32" fill="none" xmlns="http://www.w3.org/2000/svg">
<path fill-rule="evenodd" clip-rule="evenodd" d="M1.00939 13.132C0.0118578 8.67883 1.28724 4.16971 5.8692 1.51236L6.11731 1.37174C10.5774 -1.09709 14.7148 -0.20182 18.1165 3.80235L18.1937 3.8947L18.3445 3.73338C21.677 0.197986 25.5315 -0.790201 29.6441 0.991525L29.9015 1.10649C34.5827 3.26047 36.0725 7.526 35.266 13.0031C34.4038 18.8589 28.9625 24.9085 19.0668 31.3663L18.0958 32L17.1432 31.3384C7.66981 24.7585 2.26863 18.7535 1.00939 13.132ZM18.1734 26.5085C25.7845 21.3117 30.0437 16.6407 30.7694 12.5398L30.8036 12.3281C31.0759 10.4737 31.0229 8.93202 30.5176 7.70436C30.0689 6.61402 29.2469 5.80527 28.0276 5.24424C26.6766 4.62261 25.4125 4.49856 24.1886 4.97486C22.8765 5.4855 21.6369 6.63049 20.3754 8.38327L18.0009 11.6826L15.7961 8.26598C14.5909 6.39835 13.4048 5.2068 12.0965 4.75308C10.8624 4.32506 9.56117 4.61876 8.11953 5.45485C6.87869 6.17448 6.05848 7.10811 5.61677 8.18453C5.12562 9.38139 5.09906 10.738 5.41092 12.1303C6.333 16.2466 10.6395 21.0569 18.1734 26.5085Z" fill="white"/>
</svg>
