<?xml version="1.0" encoding="utf-8"?>
<svg version="1.1" xmlns:xlink="http://www.w3.org/1999/xlink" width="37px" height="37px" xmlns="http://www.w3.org/2000/svg">
  <g transform="matrix(1 0 0 1 -1349 -5 )">
    <path d="M 4.44 23.68  L 4.44 32.56  L 13.32 32.56  L 13.32 37  L 2.22 37  C 1.036 37  0.0369999999999999 36.038  0 34.854  L 0 34.78  L 0 23.68  L 4.44 23.68  Z M 37 23.68  L 37 34.78  C 37 36.001  36.001 37  34.78 37  L 23.68 37  L 23.68 32.56  L 32.56 32.56  L 32.56 23.68  L 37 23.68  Z M 23.68 0  L 34.78 0  C 36.001 0  37 0.999  37 2.22  L 37 13.32  L 32.56 13.32  L 32.56 4.44  L 23.68 4.44  L 23.68 0  Z M 13.32 0  L 13.32 4.44  L 4.44 4.44  L 4.44 13.32  L 0 13.32  L 0 2.22  C 0 1.036  0.962 0.0369999999999999  2.146 0  L 2.22 0  L 13.32 0  Z " fill-rule="nonzero" fill="#40c0c0" stroke="none" transform="matrix(1 0 0 1 1349 5 )" />
  </g>
</svg>