<?xml version="1.0" encoding="utf-8"?>
<svg version="1.1" xmlns:xlink="http://www.w3.org/1999/xlink" width="22px" height="26px" xmlns="http://www.w3.org/2000/svg">
  <g transform="matrix(1 0 0 1 -28 -138 )">
    <path d="M 11.7687687687688 1.26426426426426  L 21.4504504504505 9.12012012012012  C 21.6666666666667 9.31231231231231  21.8108108108108 9.57657657657658  21.8108108108108 9.88888888888889  L 21.8108108108108 24.039039039039  C 21.8108108108108 24.5675675675676  21.3783783783784 25.024024024024  20.8258258258258 25.024024024024  L 14.987987987988 25.024024024024  C 14.4594594594595 25.024024024024  14.027027027027 24.5915915915916  14.027027027027 24.0630630630631  L 14.027027027027 17.7927927927928  C 14.027027027027 17.1201201201201  13.4744744744745 16.5675675675676  12.8018018018018 16.5675675675676  L 9.65465465465465 16.5675675675676  C 8.98198198198198 16.5675675675676  8.42942942942943 17.1201201201201  8.42942942942943 17.7927927927928  L 8.42942942942943 24.0630630630631  L 8.42942942942943 24.1111111111111  C 8.40540540540541 24.6156156156156  7.97297297297297 25.024024024024  7.46846846846847 25.024024024024  L 1.17417417417417 25.024024024024  C 0.645645645645645 25.024024024024  0.189189189189189 24.5915915915916  0.189189189189189 24.039039039039  L 0.189189189189189 9.88888888888889  C 0.189189189189189 9.6006006006006  0.333333333333333 9.31231231231231  0.549549549549549 9.12012012012012  L 10.2312312312312 1.26426426426426  C 10.6876876876877 0.903903903903904  11.3123123123123 0.903903903903904  11.7687687687688 1.26426426426426  Z " fill-rule="nonzero" fill="#40c0c0" stroke="none" transform="matrix(1 0 0 1 28 138 )" />
  </g>
</svg>