<?xml version="1.0" encoding="utf-8"?>
<svg version="1.1" xmlns:xlink="http://www.w3.org/1999/xlink" width="40px" height="44px" xmlns="http://www.w3.org/2000/svg">
  <g transform="matrix(1 0 0 1 -366 -124 )">
    <path d="M 20 42.035714285714285  C 20.25641025641026 42.035714285714285  20.384615384615387 41.904761904761905  20.384615384615383 41.64285714285714  C 20.384615384615387 41.38095238095238  20.25641025641026 41.25  20 41.25  C 19.054487179487182 41.25  18.2411858974359 40.902157738095234  17.560096153846153 40.206473214285715  C 16.879006410256412 39.51078869047619  16.538461538461537 38.68005952380952  16.538461538461537 37.714285714285715  C 16.538461538461537 37.45238095238095  16.410256410256412 37.32142857142857  16.153846153846153 37.32142857142857  C 15.897435897435898 37.32142857142857  15.769230769230768 37.45238095238095  15.769230769230768 37.714285714285715  C 15.769230769230768 38.90922619047619  16.181891025641026 39.928199404761905  17.007211538461537 40.77120535714286  C 17.83253205128205 41.61421130952381  18.830128205128208 42.035714285714285  20 42.035714285714285  Z M 37.8125 32.410714285714285  C 38.469551282051285 33.16369047619048  39.19871794871795 33.88392857142857  40 34.57142857142857  C 40.00000000000001 35.42261904761905  39.695512820512825 36.1592261904762  39.08653846153846 36.78125  C 38.4775641025641 37.4032738095238  37.75641025641026 37.714285714285715  36.92307692307693 37  L 26.153846153846153 37  C 26.153846153846153 39.449404761904766  25.552884615384617 40.93080357142857  24.350961538461537 42.15848214285714  C 23.149038461538463 43.386160714285715  21.698717948717952 44  20 44  C 18.30128205128205 44  16.850961538461537 43.386160714285715  15.649038461538463 42.15848214285714  C 14.447115384615385 40.93080357142857  13.846153846153847 39.449404761904766  13.846153846153847 37  L 3.076923076923077 37  C 2.243589743589744 37.714285714285715  1.5224358974358976 37.4032738095238  0.9134615384615384 36.78125  C 0.30448717948717957 36.1592261904762  0 35.42261904761905  0 34.57142857142857  C 0.8012820512820515 33.88392857142857  1.5304487179487183 33.16369047619048  2.1875 32.410714285714285  C 2.8445512820512824 31.65773809523809  3.525641025641026 30.6796875  4.230769230769231 29.4765625  C 4.935897435897437 28.2734375  5.532852564102565 26.976190476190474  6.021634615384616 25.58482142857143  C 6.510416666666668 24.19345238095238  6.9110576923076925 22.507440476190478  7.2235576923076925 20.52678571428571  C 7.5360576923076925 18.546130952380953  7.6923076923076925 16.418154761904756  7.6923076923076925 14.142857142857142  C 7.6923076923076925 11.654761904761902  8.629807692307693 9.342633928571429  10.504807692307692 7.206473214285712  C 12.379807692307692 5.0703125  14.839743589743591 3.773065476190473  17.884615384615387 3.3147321428571415  C 17.75641025641026 3.003720238095234  17.692307692307693 2.6845238095238098  17.692307692307693 2.3571428571428585  C 17.692307692307693 1.7023809523809512  17.916666666666668 1.1458333333333317  18.365384615384613 0.6875  C 18.814102564102566 0.2291666666666683  19.358974358974358 0  20 0  C 20.641025641025642 0  21.18589743589744 0.2291666666666683  21.634615384615383 0.6875  C 22.083333333333336 1.1458333333333317  22.307692307692307 1.7023809523809512  22.307692307692307 2.3571428571428585  C 22.307692307692307 2.6845238095238098  22.243589743589745 3.003720238095234  22.115384615384617 3.3147321428571415  C 25.160256410256416 3.773065476190473  27.620192307692307 5.0703125  29.495192307692307 7.206473214285712  C 31.370192307692307 9.342633928571429  32.30769230769231 11.654761904761902  32.30769230769231 14.142857142857142  C 32.30769230769231 16.418154761904756  32.46394230769231 18.546130952380953  32.77644230769231 20.52678571428571  C 33.08894230769231 22.507440476190478  33.489583333333336 24.19345238095238  33.97836538461539 25.58482142857143  C 34.46714743589744 26.976190476190474  35.06410256410256 28.2734375  35.769230769230774 29.4765625  C 36.47435897435898 30.6796875  37.15544871794873 31.65773809523809  37.8125 32.410714285714285  Z " fill-rule="nonzero" fill="#9ca3aa" stroke="none" transform="matrix(1 0 0 1 366 124 )" />
  </g>
</svg>