<?xml version="1.0" encoding="utf-8"?>
<svg version="1.1" xmlns:xlink="http://www.w3.org/1999/xlink" width="27px" height="30px" xmlns="http://www.w3.org/2000/svg">
  <g>
    <path d="M 13.5 28.66071428571429  C 13.673076923076925 28.66071428571429  13.759615384615387 28.571428571428573  13.759615384615383 28.392857142857142  C 13.759615384615387 28.214285714285715  13.673076923076925 28.125  13.5 28.125  C 12.861778846153847 28.125  12.312800480769234 27.88783482142857  11.853064903846153 27.41350446428571  C 11.393329326923078 26.939174107142858  11.163461538461538 26.372767857142854  11.163461538461538 25.714285714285715  C 11.163461538461538 25.535714285714285  11.076923076923078 25.44642857142857  10.903846153846153 25.44642857142857  C 10.730769230769232 25.44642857142857  10.644230769230768 25.535714285714285  10.644230769230768 25.714285714285715  C 10.644230769230768 26.529017857142858  10.922776442307693 27.223772321428573  11.479867788461538 27.798549107142858  C 12.036959134615385 28.373325892857142  12.71033653846154 28.66071428571429  13.5 28.66071428571429  Z M 25.5234375 22.098214285714285  C 25.966947115384617 22.611607142857146  26.459134615384617 23.10267857142857  27 23.57142857142857  C 27.000000000000007 24.151785714285715  26.794471153846157 24.65401785714286  26.383413461538463 25.078125  C 25.97235576923077 25.50223214285714  25.485576923076927 25.714285714285715  24.923076923076923 25.714285714285715  L 17.653846153846153 25.714285714285715  C 17.653846153846153 26.89732142857143  17.248197115384617 27.90736607142857  16.436899038461537 28.744419642857142  C 15.625600961538462 29.58147321428571  14.646634615384617 30  13.5 30  C 12.353365384615385 30  11.374399038461538 29.58147321428571  10.563100961538462 28.744419642857142  C 9.751802884615385 27.90736607142857  9.346153846153847 26.89732142857143  9.346153846153847 25.714285714285715  L 2.076923076923077 25.714285714285715  C 1.514423076923077 25.714285714285715  1.0276442307692308 25.50223214285714  0.6165865384615384 25.078125  C 0.20552884615384623 24.65401785714286  0 24.151785714285715  0 23.57142857142857  C 0.5408653846153848 23.10267857142857  1.0330528846153848 22.611607142857146  1.4765625 22.098214285714285  C 1.9200721153846156 21.584821428571427  2.3798076923076925 20.91796875  2.855769230769231 20.09765625  C 3.3317307692307696 19.27734375  3.7346754807692313 18.392857142857142  4.064603365384616 17.44419642857143  C 4.394531250000001 16.495535714285715  4.6649639423076925 15.345982142857144  4.8759014423076925 13.995535714285714  C 5.0868389423076925 12.645089285714285  5.1923076923076925 11.194196428571425  5.1923076923076925 9.642857142857142  C 5.1923076923076925 7.946428571428569  5.8251201923076925 6.369977678571429  7.090745192307692 4.913504464285713  C 8.356370192307692 3.45703125  10.016826923076923 2.5725446428571406  12.072115384615385 2.260044642857142  C 11.985576923076923 2.0479910714285685  11.942307692307692 1.830357142857143  11.942307692307692 1.607142857142858  C 11.942307692307692 1.160714285714285  12.09375 0.7812499999999989  12.396634615384615 0.46875  C 12.699519230769232 0.1562500000000011  13.067307692307692 0  13.5 0  C 13.932692307692308 0  14.300480769230772 0.1562500000000011  14.603365384615383 0.46875  C 14.906250000000002 0.7812499999999989  15.057692307692308 1.160714285714285  15.057692307692308 1.607142857142858  C 15.057692307692308 1.830357142857143  15.014423076923077 2.0479910714285685  14.927884615384617 2.260044642857142  C 16.98317307692308 2.5725446428571406  18.643629807692307 3.45703125  19.909254807692307 4.913504464285713  C 21.174879807692307 6.369977678571429  21.807692307692307 7.946428571428569  21.807692307692307 9.642857142857142  C 21.807692307692307 11.194196428571425  21.913161057692307 12.645089285714285  22.124098557692307 13.995535714285714  C 22.335036057692307 15.345982142857144  22.60546875 16.495535714285715  22.935396634615383 17.44419642857143  C 23.265324519230774 18.392857142857142  23.66826923076923 19.27734375  24.14423076923077 20.09765625  C 24.62019230769231 20.91796875  25.07992788461539 21.584821428571427  25.5234375 22.098214285714285  Z " fill-rule="nonzero" fill="#40c0c0" stroke="none" />
  </g>
</svg>