<?xml version="1.0" encoding="utf-8"?>
<svg version="1.1" xmlns:xlink="http://www.w3.org/1999/xlink" width="34px" height="34px" xmlns="http://www.w3.org/2000/svg">
  <g transform="matrix(1 0 0 1 -395 -130 )">
    <path d="M 19.380000000000003 0  C 19.958000000000002 0  20.4 0.44200000000000006  20.4 1.02  L 20.4 5.576  C 21.182 5.813999999999999  21.964 6.12  22.644 6.5280000000000005  L 25.873999999999995 3.2979999999999996  C 26.282 2.89  26.927999999999994 2.89  27.302000000000003 3.2979999999999996  L 30.668 6.664000000000001  C 31.076 7.072000000000001  31.076 7.718000000000001  30.668 8.091999999999999  L 27.438000000000002 11.322  C 27.811999999999998 12.036  28.152 12.783999999999999  28.390000000000004 13.600000000000001  L 32.98 13.600000000000001  C 33.55800000000001 13.600000000000001  34 14.042000000000002  34 14.620000000000001  L 34 19.380000000000003  C 34 19.958000000000002  33.55800000000001 20.4  32.98 20.4  L 28.424 20.4  C 28.186 21.182  27.88 21.964  27.471999999999998 22.644  L 30.702 25.873999999999995  C 31.109999999999996 26.282  31.109999999999996 26.927999999999994  30.702 27.302000000000003  L 27.336 30.668  C 26.927999999999994 31.076  26.282 31.076  25.908 30.668  L 22.677999999999997 27.438000000000002  C 21.964 27.811999999999998  21.215999999999998 28.152  20.433999999999994 28.390000000000004  L 20.4 32.98  C 20.4 33.55800000000001  19.958000000000002 34  19.380000000000003 34  L 14.620000000000001 34  C 14.042000000000002 34  13.600000000000001 33.55800000000001  13.600000000000001 32.98  L 13.600000000000001 28.424  C 12.818 28.186  12.036 27.88  11.322 27.471999999999998  L 8.091999999999999 30.702  C 7.683999999999999 31.109999999999996  7.0379999999999985 31.109999999999996  6.664 30.702  L 3.297999999999999 27.336  C 2.8899999999999992 26.927999999999994  2.8899999999999992 26.282  3.297999999999999 25.908  L 6.528 22.677999999999997  C 6.153999999999998 21.964  5.813999999999997 21.215999999999998  5.575999999999999 20.399999999999995  L 1.02 20.4  C 0.44200000000000006 20.4  0 19.958000000000002  0 19.380000000000003  L 0 14.620000000000001  C 0 14.042000000000002  0.44200000000000006 13.600000000000001  1.02 13.600000000000001  L 5.576 13.600000000000001  C 5.813999999999999 12.818  6.12 12.036  6.5280000000000005 11.356  L 3.2979999999999996 8.126  C 2.89 7.717999999999999  2.89 7.072  3.2979999999999996 6.6979999999999995  L 6.664000000000001 3.332  C 7.072000000000001 2.924  7.718000000000001 2.924  8.091999999999999 3.332  L 11.322 6.561999999999999  C 12.036 6.187999999999998  12.783999999999999 5.847999999999999  13.600000000000001 5.609999999999999  L 13.600000000000001 1.02  C 13.600000000000001 0.44200000000000006  14.042000000000002 0  14.620000000000001 0  L 19.380000000000003 0  Z M 17.034 11.084  C 13.736000000000002 11.084  11.084 13.735999999999999  11.084 17.034  C 11.084 20.332  13.735999999999999 22.983999999999998  17.034 22.983999999999998  C 20.332 22.983999999999998  22.983999999999998 20.332  22.983999999999998 17.033999999999995  C 22.983999999999998 13.735999999999999  20.332 11.084  17.034 11.084  Z " fill-rule="nonzero" fill="#40c0c0" stroke="none" transform="matrix(1 0 0 1 395 130 )" />
  </g>
</svg>