<?xml version="1.0" encoding="utf-8"?>
<svg version="1.1" xmlns:xlink="http://www.w3.org/1999/xlink" width="22px" height="22px" xmlns="http://www.w3.org/2000/svg">
  <g transform="matrix(1 0 0 1 212 -186 )">
    <path d="M 12.54 0  C 12.914 0  13.2 0.286  13.2 0.66  L 13.2 3.608  C 13.706 3.762  14.212 3.96  14.652 4.224  L 16.742 2.134  C 17.006 1.87  17.424 1.87  17.666 2.134  L 19.844 4.312  C 20.108 4.576  20.108 4.994  19.844 5.236  L 17.754 7.326  C 17.996 7.788  18.216 8.272  18.37 8.8  L 21.34 8.8  C 21.714 8.8  22 9.086  22 9.46  L 22 12.54  C 22 12.914  21.714 13.2  21.34 13.2  L 18.392 13.2  C 18.238 13.706  18.04 14.212  17.776 14.652  L 19.866 16.742  C 20.13 17.006  20.13 17.424  19.866 17.666  L 17.688 19.844  C 17.424 20.108  17.006 20.108  16.764 19.844  L 14.674 17.754  C 14.212 17.996  13.728 18.216  13.222 18.37  L 13.2 21.34  C 13.2 21.714  12.914 22  12.54 22  L 9.46 22  C 9.086 22  8.8 21.714  8.8 21.34  L 8.8 18.392  C 8.294 18.238  7.788 18.04  7.326 17.776  L 5.236 19.866  C 4.972 20.13  4.554 20.13  4.312 19.866  L 2.134 17.688  C 1.87 17.424  1.87 17.006  2.134 16.764  L 4.224 14.674  C 3.982 14.212  3.762 13.728  3.608 13.2  L 0.66 13.2  C 0.286 13.2  0 12.914  0 12.54  L 0 9.46  C 0 9.086  0.286 8.8  0.66 8.8  L 3.608 8.8  C 3.762 8.294  3.96 7.788  4.224 7.348  L 2.134 5.258  C 1.87 4.994  1.87 4.576  2.134 4.334  L 4.312 2.156  C 4.576 1.892  4.994 1.892  5.236 2.156  L 7.326 4.246  C 7.788 4.004  8.272 3.784  8.8 3.63  L 8.8 0.66  C 8.8 0.286  9.086 0  9.46 0  L 12.54 0  Z M 11.022 7.172  C 8.888 7.172  7.172 8.888  7.172 11.022  C 7.172 13.156  8.888 14.872  11.022 14.872  C 13.156 14.872  14.872 13.156  14.872 11.022  C 14.872 8.888  13.156 7.172  11.022 7.172  Z " fill-rule="nonzero" fill="#40c0c0" stroke="none" transform="matrix(1 0 0 1 -212 186 )" />
  </g>
</svg>