<?xml version="1.0" encoding="utf-8"?>
<svg version="1.1" xmlns:xlink="http://www.w3.org/1999/xlink" width="22px" height="22px" xmlns="http://www.w3.org/2000/svg">
  <g transform="matrix(1 0 0 1 -15 -83 )">
    <path d="M 12.540000000000001 0  C 12.914000000000001 0  13.2 0.28600000000000003  13.2 0.66  L 13.2 3.6079999999999997  C 13.706 3.7619999999999996  14.211999999999998 3.96  14.651999999999997 4.224  L 16.741999999999997 2.134  C 17.006 1.87  17.423999999999996 1.87  17.666 2.134  L 19.844 4.312  C 20.108 4.5760000000000005  20.108 4.994000000000001  19.844 5.236  L 17.754 7.325999999999999  C 17.996 7.787999999999999  18.216 8.271999999999998  18.37 8.8  L 21.34 8.8  C 21.714000000000002 8.8  22 9.086  22 9.46  L 22 12.540000000000001  C 22 12.914000000000001  21.714000000000002 13.2  21.34 13.2  L 18.392 13.2  C 18.238 13.706  18.04 14.211999999999998  17.776 14.651999999999997  L 19.866 16.741999999999997  C 20.13 17.006  20.13 17.423999999999996  19.866 17.666  L 17.688 19.844  C 17.423999999999996 20.108  17.006 20.108  16.764 19.844  L 14.673999999999998 17.754  C 14.211999999999998 17.996  13.727999999999998 18.216  13.221999999999998 18.37  L 13.2 21.34  C 13.2 21.714000000000002  12.914000000000001 22  12.540000000000001 22  L 9.46 22  C 9.086 22  8.8 21.714000000000002  8.8 21.34  L 8.8 18.392  C 8.294 18.238  7.787999999999999 18.04  7.325999999999999 17.776  L 5.236 19.866  C 4.9719999999999995 20.13  4.553999999999999 20.13  4.311999999999999 19.866  L 2.1339999999999995 17.688  C 1.8699999999999994 17.423999999999996  1.8699999999999994 17.006  2.1339999999999995 16.764  L 4.223999999999999 14.673999999999998  C 3.9819999999999984 14.211999999999998  3.7619999999999987 13.727999999999998  3.6079999999999988 13.199999999999998  L 0.66 13.2  C 0.28600000000000003 13.2  0 12.914000000000001  0 12.540000000000001  L 0 9.46  C 0 9.086  0.28600000000000003 8.8  0.66 8.8  L 3.6079999999999997 8.8  C 3.7619999999999996 8.294  3.96 7.787999999999999  4.224 7.348000000000001  L 2.134 5.258  C 1.87 4.994  1.87 4.576  2.134 4.334  L 4.312 2.1559999999999997  C 4.5760000000000005 1.892  4.994000000000001 1.892  5.236 2.1559999999999997  L 7.325999999999999 4.2459999999999996  C 7.787999999999999 4.003999999999999  8.271999999999998 3.783999999999999  8.8 3.6299999999999994  L 8.8 0.66  C 8.8 0.28600000000000003  9.086 0  9.46 0  L 12.540000000000001 0  Z M 11.022 7.172000000000001  C 8.888000000000002 7.172000000000001  7.172000000000001 8.888  7.172000000000001 11.022  C 7.172000000000001 13.155999999999999  8.888 14.871999999999998  11.022 14.871999999999998  C 13.155999999999999 14.871999999999998  14.871999999999998 13.155999999999999  14.871999999999998 11.021999999999998  C 14.871999999999998 8.888  13.155999999999999 7.172000000000001  11.022 7.172000000000001  Z " fill-rule="nonzero" fill="#ffffff" stroke="none" transform="matrix(1 0 0 1 15 83 )" />
  </g>
</svg>