<?xml version="1.0" encoding="utf-8"?>
<svg version="1.1" xmlns:xlink="http://www.w3.org/1999/xlink" width="22px" height="17px" xmlns="http://www.w3.org/2000/svg">
  <g transform="matrix(1 0 0 1 212 -239 )">
    <path d="M 9.47435897435897 0  L 9.47435897435897 1.7  L 3.5025641025641 1.7  C 2.58717948717949 1.7  1.82435897435897 2.44102564102564  1.8025641025641 3.35641025641026  L 2 3.4  L 2 13.6  C 1.8025641025641 14.5153846153846  2.54358974358974 15.2782051282051  3.45897435897436 15.3  L 3.5025641025641 15.3  L 9.47435897435897 15.3  L 9.47435897435897 17  L 3.5025641025641 17  C 1.62820512820513 17  0.102564102564102 15.474358974359  0.102564102564102 13.6  L 0.102564102564102 3.4  C 0.102564102564102 1.52564102564103  1.62820512820513 0  3.5025641025641 0  L 9.47435897435897 0  Z M 13.3974358974359 0  C 13.6153846153846 0  13.8333333333333 0.0871794871794873  13.9858974358974 0.23974358974359  L 21.6358974358974 7.8025641025641  C 21.9628205128205 8.12948717948718  21.9628205128205 8.67435897435898  21.6358974358974 9.00128205128205  L 13.9858974358974 16.5858974358974  C 13.6589743589744 16.9128205128205  13.1141025641026 16.9128205128205  12.7871794871795 16.5858974358974  C 12.6346153846154 16.4333333333333  12.5474358974359 16.2153846153846  12.5474358974359 15.9974358974359  L 12.5474358974359 12.0961538461538  L 6.42307692307692 12.0961538461538  C 5.76923076923077 12.0961538461538  5.22435897435897 11.551282051282  5.22435897435897 10.8974358974359  L 5.22435897435897 6.12435897435897  C 5.22435897435897 5.47051282051282  5.76923076923077 4.92564102564103  6.42307692307692 4.92564102564103  L 12.5474358974359 4.92564102564103  L 12.5474358974359 0.850000000000001  C 12.5474358974359 0.392307692307692  12.9179487179487 0  13.3974358974359 0  Z " fill-rule="nonzero" fill="#40c0c0" stroke="none" transform="matrix(1 0 0 1 -212 239 )" />
  </g>
</svg>