<svg width="31" height="35" viewBox="0 0 31 35" fill="none" xmlns="http://www.w3.org/2000/svg">
<path fill-rule="evenodd" clip-rule="evenodd" d="M12.3034 3.99791C9.80943 4.66459 7.92085 6.6012 7.25784 8.99998H7V10.9052V14V24.207C6.52317 24.0722 6.02001 24 5.5 24C2.46243 24 0 26.4624 0 29.5C0 32.5376 2.46243 35 5.5 35C8.53757 35 11 32.5376 11 29.5C11 29.3314 10.9924 29.1647 10.9776 29H11V12.8759L27 8.37975V20.207C26.5232 20.0722 26.02 20 25.5 20C22.4624 20 20 22.4624 20 25.5C20 28.5375 22.4624 31 25.5 31C28.369 31 30.725 28.8032 30.9776 26H31V25.5V7.2557V5.99998H30.877C30.1802 2.50471 26.6321 0.167594 23.0243 1.13202L12.3034 3.99791Z" fill="white"/>
</svg>
