<svg xmlns="http://www.w3.org/2000/svg" width="71.732" height="70.432" viewBox="0 0 71.732 70.432">
  <g id="Group_1" data-name="Group 1" transform="translate(-364.684 0.016)">
    <path id="Path_1" data-name="Path 1" d="M400.1,16.3,393.6.8a1.278,1.278,0,0,0-1.7-.7L384,3.4a1.278,1.278,0,0,0-.7,1.7l6.5,15.5,7.3,3Z" fill="#fff"/>
    <path id="Path_2" data-name="Path 2" d="M400.2,45.5l10.7,24.1a1.278,1.278,0,0,0,1.7.7l7.9-3.3a1.356,1.356,0,0,0,.7-1.8L410.6,41.1l-7.3-3Z" fill="#fff"/>
    <path id="Path_3" data-name="Path 3" d="M414.8,30.9l20.8-8.5a1.278,1.278,0,0,0,.7-1.7L433,12.8a1.248,1.248,0,0,0-1.7-.7l-20.8,8.5-3,7.3Z" fill="#fff"/>
    <path id="Path_4" data-name="Path 4" d="M385.6,31l-12.7,5.7a1.278,1.278,0,0,0-.7,1.7l3.3,7.9a1.356,1.356,0,0,0,1.8.7l12.6-5.6,3-7.3Z" fill="#fff"/>
    <path id="Path_5" data-name="Path 5" d="M407.5,33.9l3.1,7.3,12.6,5.2a1.219,1.219,0,0,0,1.7-.7l3.2-7.9a1.248,1.248,0,0,0-.7-1.7l-12.6-5.2Z" fill="#fff"/>
    <path id="Path_6" data-name="Path 6" d="M389.8,20.7l-20.1-8.3a1.219,1.219,0,0,0-1.7.7L364.8,21a1.248,1.248,0,0,0,.7,1.7L385.6,31l7.3-3.1Z" fill="#fff"/>
    <path id="Path_7" data-name="Path 7" d="M389.9,41.3l-6.4,15.6a1.248,1.248,0,0,0,.7,1.7l7.9,3.2a1.248,1.248,0,0,0,1.7-.7l6.4-15.6-3.1-7.3Z" fill="#fff"/>
    <path id="Path_8" data-name="Path 8" d="M410.5,20.6l5.2-12.3a1.219,1.219,0,0,0-.7-1.7l-7.9-3.2a1.248,1.248,0,0,0-1.7.7l-5.2,12.3,3.1,7.3Z" fill="#fff"/>
  </g>
</svg>
