<?xml version="1.0" encoding="utf-8"?>
<svg version="1.1" xmlns:xlink="http://www.w3.org/1999/xlink" width="21px" height="21px" xmlns="http://www.w3.org/2000/svg">
  <g transform="matrix(1 0 0 1 -254 -25 )">
    <path d="M 11.508 0  C 11.865 0  12.138 0.273  12.138 0.63  L 12.138 8.862  L 20.37 8.862  C 20.727 8.862  21 9.135  21 9.492  L 21 11.508  C 21 11.865  20.727 12.138  20.37 12.138  L 12.138 12.138  L 12.138 20.37  C 12.138 20.727  11.865 21  11.508 21  L 9.492 21  C 9.135 21  8.862 20.727  8.862 20.37  L 8.862 12.138  L 0.63 12.138  C 0.273 12.138  0 11.865  0 11.508  L 0 9.492  C 0 9.135  0.273 8.862  0.63 8.862  L 8.862 8.862  L 8.862 0.629999999999998  C 8.862 0.272999999999999  9.135 0  9.492 0  L 11.508 0  Z " fill-rule="nonzero" fill="#24343e" stroke="none" transform="matrix(1 0 0 1 254 25 )" />
  </g>
</svg>